<svg 
 xmlns="http://www.w3.org/2000/svg"
 xmlns:xlink="http://www.w3.org/1999/xlink"
 width="28px" height="32px">
<path fill-rule="evenodd"  fill="rgb(149, 225, 211)"
 d="M26.500,16.497 L23.500,16.497 C22.672,16.497 21.1000,15.827 21.1000,14.998 L21.1000,8.998 C21.1000,8.170 22.672,7.499 23.500,7.499 L26.500,7.499 C27.328,7.499 28.000,8.170 28.000,8.998 L28.000,14.998 C28.000,15.827 27.328,16.497 26.500,16.497 ZM23.500,1.497 C23.500,0.669 24.172,-0.002 24.1000,-0.002 C25.828,-0.002 26.500,0.669 26.500,1.497 L26.500,5.998 L23.500,5.998 L23.500,1.497 ZM15.500,24.497 L12.500,24.497 C11.672,24.497 10.1000,23.827 10.1000,22.998 L10.1000,16.998 C10.1000,16.170 11.672,15.498 12.500,15.498 L15.500,15.498 C16.328,15.498 16.1000,16.170 16.1000,16.998 L16.1000,22.998 C16.1000,23.827 16.328,24.497 15.500,24.497 ZM12.500,1.497 C12.500,0.669 13.172,-0.002 14.000,-0.002 C14.828,-0.002 15.500,0.669 15.500,1.497 L15.500,13.998 L12.500,13.998 L12.500,1.497 ZM4.500,20.498 L1.500,20.498 C0.672,20.498 -0.000,19.826 -0.000,18.997 L-0.000,12.997 C-0.000,12.169 0.672,11.498 1.500,11.498 L4.500,11.498 C5.328,11.498 6.000,12.169 6.000,12.997 L6.000,18.997 C6.000,19.826 5.328,20.498 4.500,20.498 ZM1.500,1.497 C1.500,0.669 2.172,-0.002 2.1000,-0.002 C3.828,-0.002 4.500,0.669 4.500,1.497 L4.500,9.999 L1.500,9.999 L1.500,1.497 ZM4.500,30.497 C4.500,31.326 3.828,31.998 2.1000,31.998 C2.172,31.998 1.500,31.326 1.500,30.497 L1.500,21.998 L4.500,21.998 L4.500,30.497 ZM15.500,30.497 C15.500,31.326 14.828,31.998 14.000,31.998 C13.172,31.998 12.500,31.326 12.500,30.497 L12.500,25.997 L15.500,25.997 L15.500,30.497 ZM26.500,30.497 C26.500,31.326 25.828,31.998 24.1000,31.998 C24.172,31.998 23.500,31.326 23.500,30.497 L23.500,17.999 L26.500,17.999 L26.500,30.497 Z"/>
</svg>